<svg width="64" height="20" viewBox="0 0 64 20" fill="none" xmlns="http://www.w3.org/2000/svg">
<path fill-rule="evenodd" clip-rule="evenodd" d="M10.001 0C4.47816 0 0.00100708 4.47715 0.00100708 10C0.00100708 15.5228 4.47816 20 10.001 20C15.5239 20 20.001 15.5228 20.001 10C20.001 4.47715 15.5239 0 10.001 0ZM7.00101 7C7.55329 7 8.00101 6.55228 8.00101 6C8.00101 5.44772 7.55329 5 7.00101 5C6.44872 5 6.00101 5.44772 6.00101 6C6.00101 6.55228 6.44872 7 7.00101 7ZM14.001 6C14.001 6.55228 13.5533 7 13.001 7C12.4487 7 12.001 6.55228 12.001 6C12.001 5.44772 12.4487 5 13.001 5C13.5533 5 14.001 5.44772 14.001 6ZM14.6204 12.9134C14.8717 12.3068 15.001 11.6566 15.001 11H5.00101C5.00101 11.6566 5.13034 12.3068 5.38161 12.9134C5.63288 13.52 6.00118 14.0712 6.46547 14.5355C6.92977 14.9998 7.48096 15.3681 8.08759 15.6194C8.69422 15.8707 9.3444 16 10.001 16C10.6576 16 11.3078 15.8707 11.9144 15.6194C12.5211 15.3681 13.0722 14.9998 13.5365 14.5355C14.0008 14.0712 14.3691 13.52 14.6204 12.9134Z" fill="#FFD02C"/>
<path fill-rule="evenodd" clip-rule="evenodd" d="M32.001 0C26.4782 0 22.001 4.47715 22.001 10C22.001 15.5228 26.4782 20 32.001 20C37.5239 20 42.001 15.5228 42.001 10C42.001 4.47715 37.5239 0 32.001 0ZM29.001 7C29.5533 7 30.001 6.55228 30.001 6C30.001 5.44772 29.5533 5 29.001 5C28.4487 5 28.001 5.44772 28.001 6C28.001 6.55228 28.4487 7 29.001 7ZM36.001 6C36.001 6.55228 35.5533 7 35.001 7C34.4487 7 34.001 6.55228 34.001 6C34.001 5.44772 34.4487 5 35.001 5C35.5533 5 36.001 5.44772 36.001 6ZM36.6204 12.9134C36.8717 12.3068 37.001 11.6566 37.001 11H27.001C27.001 11.6566 27.1303 12.3068 27.3816 12.9134C27.6329 13.52 28.0012 14.0712 28.4655 14.5355C28.9298 14.9998 29.481 15.3681 30.0876 15.6194C30.6942 15.8707 31.3444 16 32.001 16C32.6576 16 33.3078 15.8707 33.9144 15.6194C34.5211 15.3681 35.0722 14.9998 35.5365 14.5355C36.0008 14.0712 36.3691 13.52 36.6204 12.9134Z" fill="#FFD02C"/>
<path fill-rule="evenodd" clip-rule="evenodd" d="M54.001 0C48.4782 0 44.001 4.47715 44.001 10C44.001 15.5228 48.4782 20 54.001 20C59.5239 20 64.001 15.5228 64.001 10C64.001 4.47715 59.5239 0 54.001 0ZM51.001 7C51.5533 7 52.001 6.55228 52.001 6C52.001 5.44772 51.5533 5 51.001 5C50.4487 5 50.001 5.44772 50.001 6C50.001 6.55228 50.4487 7 51.001 7ZM58.001 6C58.001 6.55228 57.5533 7 57.001 7C56.4487 7 56.001 6.55228 56.001 6C56.001 5.44772 56.4487 5 57.001 5C57.5533 5 58.001 5.44772 58.001 6ZM58.6204 12.9134C58.8717 12.3068 59.001 11.6566 59.001 11H49.001C49.001 11.6566 49.1303 12.3068 49.3816 12.9134C49.6329 13.52 50.0012 14.0712 50.4655 14.5355C50.9298 14.9998 51.481 15.3681 52.0876 15.6194C52.6942 15.8707 53.3444 16 54.001 16C54.6576 16 55.3078 15.8707 55.9144 15.6194C56.5211 15.3681 57.0722 14.9998 57.5365 14.5355C58.0008 14.0712 58.3691 13.52 58.6204 12.9134Z" fill="#FFD02C"/>
<path fill-rule="evenodd" clip-rule="evenodd" d="M54.001 0C48.4782 0 44.001 4.47715 44.001 10C44.001 15.5228 48.4782 20 54.001 20C59.5239 20 64.001 15.5228 64.001 10C64.001 4.47715 59.5239 0 54.001 0ZM51.001 7C51.5533 7 52.001 6.55228 52.001 6C52.001 5.44772 51.5533 5 51.001 5C50.4487 5 50.001 5.44772 50.001 6C50.001 6.55228 50.4487 7 51.001 7ZM58.001 6C58.001 6.55228 57.5533 7 57.001 7C56.4487 7 56.001 6.55228 56.001 6C56.001 5.44772 56.4487 5 57.001 5C57.5533 5 58.001 5.44772 58.001 6ZM58.6204 12.9134C58.8717 12.3068 59.001 11.6566 59.001 11H49.001C49.001 11.6566 49.1303 12.3068 49.3816 12.9134C49.6329 13.52 50.0012 14.0712 50.4655 14.5355C50.9298 14.9998 51.481 15.3681 52.0876 15.6194C52.6942 15.8707 53.3444 16 54.001 16C54.6576 16 55.3078 15.8707 55.9144 15.6194C56.5211 15.3681 57.0722 14.9998 57.5365 14.5355C58.0008 14.0712 58.3691 13.52 58.6204 12.9134Z" fill="#CCCCCC"/>
</svg>
