<svg width="65" height="19" viewBox="0 0 65 19" fill="none" xmlns="http://www.w3.org/2000/svg">
<path d="M6.28102 0.000154665C6.91102 0.0193143 7.52102 0.129314 8.11202 0.330314H8.17102C8.21102 0.349314 8.24102 0.370314 8.26102 0.389314C8.48202 0.460314 8.69102 0.540314 8.89102 0.650314L9.27102 0.820314C9.42102 0.900314 9.60102 1.04931 9.70102 1.11031C9.80102 1.16931 9.91102 1.23031 10.001 1.29931C11.112 0.450314 12.461 -0.00968566 13.851 0.000154665C14.482 0.000154665 15.112 0.0893143 15.711 0.290314C19.402 1.49031 20.732 5.54031 19.621 9.08031C18.991 10.8893 17.961 12.5403 16.612 13.8893C14.681 15.7593 12.562 17.4193 10.281 18.8493L10.031 19.0003L9.77102 18.8393C7.48202 17.4193 5.35102 15.7593 3.40202 13.8793C2.06202 12.5303 1.03102 10.8893 0.391024 9.08031C-0.738976 5.54031 0.591024 1.49031 4.32202 0.269314C4.61202 0.169314 4.91102 0.0993143 5.21102 0.0603143H5.33102C5.61202 0.0193143 5.89102 0.000154665 6.17102 0.000154665H6.28102ZM15.191 3.16031C14.781 3.01931 16.151 2.08 16.001 2.5C15.861 2.92 17.081 3.851 17.501 4C18.142 4.24 17.501 4.301 17.501 5L19.001 5.5C18.982 5.729 17.861 6.33 18.001 6.5C21.061 6.08969 17.281 7.479 17.501 7.5C17.501 7.5 17.271 6.86031 17.301 6.43931V6.32031C17.331 4.91931 16.482 3.65031 15.191 3.16031Z" fill="#25CBFF"/>
<path d="M28.281 0.000154665C28.911 0.0193143 29.521 0.129314 30.112 0.330314H30.171C30.211 0.349314 30.241 0.370314 30.261 0.389314C30.482 0.460314 30.691 0.540314 30.891 0.650314L31.271 0.820314C31.421 0.900314 31.601 1.04931 31.701 1.11031C31.801 1.16931 31.911 1.23031 32.001 1.29931C33.112 0.450314 34.461 -0.00968566 35.851 0.000154665C36.482 0.000154665 37.112 0.0893143 37.711 0.290314C41.402 1.49031 42.732 5.54031 41.621 9.08031C40.991 10.8893 39.961 12.5403 38.612 13.8893C36.681 15.7593 34.562 17.4193 32.281 18.8493L32.031 19.0003L31.771 18.8393C29.482 17.4193 27.351 15.7593 25.402 13.8793C24.062 12.5303 23.031 10.8893 22.391 9.08031C21.261 5.54031 22.591 1.49031 26.322 0.269314C26.612 0.169314 26.911 0.0993143 27.211 0.0603143H27.331C27.612 0.0193143 27.891 0.000154665 28.171 0.000154665H28.281ZM37.191 3.16031C36.781 3.01931 38.151 2.08 38.001 2.5C37.861 2.92 39.081 3.851 39.501 4C40.142 4.24 39.501 4.301 39.501 5L41.001 5.5C40.982 5.729 39.861 6.33 40.001 6.5C43.061 6.08969 39.281 7.479 39.501 7.5C39.501 7.5 39.271 6.86031 39.301 6.43931V6.32031C39.331 4.91931 38.482 3.65031 37.191 3.16031Z" fill="#25CBFF"/>
<path d="M50.281 0.000154665C50.911 0.0193143 51.521 0.129314 52.112 0.330314H52.171C52.211 0.349314 52.241 0.370314 52.261 0.389314C52.482 0.460314 52.691 0.540314 52.891 0.650314L53.271 0.820314C53.421 0.900314 53.601 1.04931 53.701 1.11031C53.801 1.16931 53.911 1.23031 54.001 1.29931C55.112 0.450314 56.461 -0.00968566 57.851 0.000154665C58.482 0.000154665 59.112 0.0893143 59.711 0.290314C63.402 1.49031 64.732 5.54031 63.621 9.08031C62.991 10.8893 61.961 12.5403 60.612 13.8893C58.681 15.7593 56.562 17.4193 54.281 18.8493L54.031 19.0003L53.771 18.8393C51.482 17.4193 49.351 15.7593 47.402 13.8793C46.062 12.5303 45.031 10.8893 44.391 9.08031C43.261 5.54031 44.591 1.49031 48.322 0.269314C48.612 0.169314 48.911 0.0993143 49.211 0.0603143H49.331C49.612 0.0193143 49.891 0.000154665 50.171 0.000154665H50.281ZM59.191 3.16031C58.781 3.01931 60.151 2.08 60.001 2.5C59.861 2.92 61.081 3.851 61.501 4C62.142 4.24 61.501 4.301 61.501 5L63.001 5.5C62.982 5.729 61.861 6.33 62.001 6.5C65.061 6.08969 61.281 7.479 61.501 7.5C61.501 7.5 61.271 6.86031 61.301 6.43931V6.32031C61.331 4.91931 60.482 3.65031 59.191 3.16031Z" fill="#25CBFF"/>
</svg>
