<svg width="24" height="24" viewBox="0 0 24 24" fill="none" xmlns="http://www.w3.org/2000/svg">
<path d="M8.2798 2.50054C8.9098 2.5197 9.5198 2.6297 10.1108 2.8307H10.1698C10.2098 2.8497 10.2398 2.8707 10.2598 2.8897C10.4808 2.9607 10.6898 3.0407 10.8898 3.1507L11.2698 3.3207C11.4198 3.4007 11.5998 3.5497 11.6998 3.6107C11.7998 3.6697 11.9098 3.7307 11.9998 3.7997C13.1108 2.9507 14.4598 2.4907 15.8498 2.50054C16.4808 2.50054 17.1108 2.5897 17.7098 2.7907C21.4008 3.9907 22.7308 8.0407 21.6198 11.5807C20.9898 13.3897 19.9598 15.0407 18.6108 16.3897C16.6798 18.2597 14.5608 19.9197 12.2798 21.3497L12.0298 21.5007L11.7698 21.3397C9.4808 19.9197 7.3498 18.2597 5.4008 16.3797C4.0608 15.0307 3.0298 13.3897 2.3898 11.5807C1.2598 8.0407 2.5898 3.9907 6.3208 2.7697C6.6108 2.6697 6.9098 2.5997 7.2098 2.5607H7.3298C7.6108 2.5197 7.8898 2.50054 8.1698 2.50054H8.2798ZM17.1898 5.6607C16.7798 5.5197 16.3298 5.7407 16.1798 6.1607C16.0398 6.5807 16.2598 7.0407 16.6798 7.1897C17.3208 7.4297 17.7498 8.0607 17.7498 8.7597V8.7907C17.7308 9.0197 17.7998 9.2407 17.9398 9.4107C18.0798 9.5807 18.2898 9.6797 18.5098 9.7007C18.9198 9.6897 19.2698 9.3607 19.2998 8.9397V8.8207C19.3298 7.4197 18.4808 6.1507 17.1898 5.6607Z" fill="#CCCCD2"/>
</svg>
