<svg width="60" height="60" viewBox="0 0 60 60" fill="none" xmlns="http://www.w3.org/2000/svg">
<rect x="0.5" y="0.5" width="59" height="59" rx="29.5" fill="white" stroke="#E5E5E9"/>
<path d="M27.1348 38.7733V35.7156C27.1348 34.9351 27.7722 34.3023 28.5584 34.3023H31.4326C31.8102 34.3023 32.1723 34.4512 32.4393 34.7163C32.7063 34.9813 32.8563 35.3408 32.8563 35.7156V38.7733C32.8539 39.0978 32.9821 39.4099 33.2124 39.6402C33.4427 39.8705 33.7561 40 34.0829 40H36.0438C36.9596 40.0023 37.8388 39.6428 38.4872 39.0008C39.1356 38.3588 39.5 37.487 39.5 36.5778V27.8669C39.5 27.1325 39.1721 26.4358 38.6046 25.9647L31.934 20.6759C30.7737 19.7486 29.1111 19.7785 27.9854 20.747L21.467 25.9647C20.8727 26.422 20.5176 27.1206 20.5 27.8669V36.5689C20.5 38.4639 22.0474 40 23.9562 40H25.8723C26.5512 40 27.103 39.4562 27.1079 38.7822L27.1348 38.7733Z" fill="#CCCCD2"/>
</svg>
