<svg width="65" height="19" viewBox="0 0 65 19" fill="none" xmlns="http://www.w3.org/2000/svg">
<path d="M50.2812 0.000154665C50.9112 0.0193143 51.5212 0.129314 52.1122 0.330314H52.1712C52.2112 0.349314 52.2412 0.370314 52.2612 0.389314C52.4822 0.460314 52.6912 0.540314 52.8912 0.650314L53.2712 0.820314C53.4212 0.900314 53.6012 1.04931 53.7012 1.11031C53.8012 1.16931 53.9112 1.23031 54.0012 1.29931C55.1122 0.450314 56.4612 -0.00968566 57.8512 0.000154665C58.4822 0.000154665 59.1122 0.0893144 59.7112 0.290314C63.4022 1.49031 64.7322 5.54031 63.6212 9.08031C62.9912 10.8893 61.9612 12.5403 60.6122 13.8893C58.6812 15.7593 56.5622 17.4193 54.2812 18.8493L54.0312 19.0003L53.7712 18.8393C51.4822 17.4193 49.3512 15.7593 47.4022 13.8793C46.0622 12.5303 45.0312 10.8893 44.3912 9.08031C43.2612 5.54031 44.5912 1.49031 48.3222 0.269314C48.6122 0.169314 48.9112 0.0993143 49.2112 0.0603143H49.3312C49.6122 0.0193143 49.8912 0.000154665 50.1712 0.000154665H50.2812Z" fill="#ED2590"/>
<path d="M28.2812 0.000154665C28.9112 0.0193143 29.5212 0.129314 30.1122 0.330314H30.1712C30.2112 0.349314 30.2412 0.370314 30.2612 0.389314C30.4822 0.460314 30.6912 0.540314 30.8912 0.650314L31.2712 0.820314C31.4212 0.900314 31.6012 1.04931 31.7012 1.11031C31.8012 1.16931 31.9112 1.23031 32.0012 1.29931C33.1122 0.450314 34.4612 -0.00968566 35.8512 0.000154665C36.4822 0.000154665 37.1122 0.0893144 37.7112 0.290314C41.4022 1.49031 42.7322 5.54031 41.6212 9.08031C40.9912 10.8893 39.9612 12.5403 38.6122 13.8893C36.6812 15.7593 34.5622 17.4193 32.2812 18.8493L32.0312 19.0003L31.7712 18.8393C29.4822 17.4193 27.3512 15.7593 25.4022 13.8793C24.0622 12.5303 23.0312 10.8893 22.3912 9.08031C21.2612 5.54031 22.5912 1.49031 26.3222 0.269314C26.6122 0.169314 26.9112 0.0993143 27.2112 0.0603143H27.3312C27.6122 0.0193143 27.8912 0.000154665 28.1712 0.000154665H28.2812Z" fill="#ED2590"/>
<path d="M6.28124 0.000154665C6.91124 0.0193143 7.52124 0.129314 8.11224 0.330314H8.17124C8.21124 0.349314 8.24124 0.370314 8.26124 0.389314C8.48224 0.460314 8.69124 0.540314 8.89124 0.650314L9.27124 0.820314C9.42124 0.900314 9.60124 1.04931 9.70124 1.11031C9.80124 1.16931 9.91124 1.23031 10.0012 1.29931C11.1122 0.450314 12.4612 -0.00968566 13.8512 0.000154665C14.4822 0.000154665 15.1122 0.0893144 15.7112 0.290314C19.4022 1.49031 20.7322 5.54031 19.6212 9.08031C18.9912 10.8893 17.9612 12.5403 16.6122 13.8893C14.6812 15.7593 12.5622 17.4193 10.2812 18.8493L10.0312 19.0003L9.77124 18.8393C7.48224 17.4193 5.35124 15.7593 3.40224 13.8793C2.06224 12.5303 1.03124 10.8893 0.391237 9.08031C-0.738763 5.54031 0.591238 1.49031 4.32224 0.269314C4.61224 0.169314 4.91124 0.0993143 5.21124 0.0603143H5.33124C5.61224 0.0193143 5.89124 0.000154665 6.17124 0.000154665H6.28124Z" fill="#ED2590"/>
</svg>
